<?xml version="1.0" standalone="no"?>
<!DOCTYPE svg PUBLIC "-//W3C//DTD SVG 20010904//EN"
 "http://www.w3.org/TR/2001/REC-SVG-20010904/DTD/svg10.dtd">
<svg version="1.0" xmlns="http://www.w3.org/2000/svg"
 width="1024.000000pt" height="1024.000000pt" viewBox="0 0 1024.000000 1024.000000"
 preserveAspectRatio="xMidYMid meet">
<metadata>
Created by potrace 1.11, written by Peter Selinger 2001-2013
</metadata>
<g transform="translate(0.000000,1024.000000) scale(0.100000,-0.100000)"
fill="#000000" stroke="none">
<path d="M10200 9569 c-19 -17 -50 -44 -68 -60 -19 -16 -38 -29 -42 -29 -5 0
-10 -3 -12 -7 -3 -7 -42 -40 -231 -196 -22 -18 -47 -39 -56 -47 -9 -8 -32 -27
-51 -42 -19 -15 -48 -38 -65 -52 -35 -29 -31 -27 -110 -90 -33 -27 -67 -55
-75 -62 -31 -28 -69 -60 -95 -78 -14 -11 -38 -30 -53 -43 -15 -13 -34 -29 -42
-36 -8 -7 -37 -31 -65 -53 -27 -21 -52 -42 -55 -46 -3 -3 -32 -28 -65 -55 -34
-26 -67 -54 -75 -61 -17 -14 -269 -221 -318 -260 -18 -15 -48 -39 -65 -53 -18
-15 -90 -75 -162 -134 -71 -59 -139 -114 -150 -124 -11 -9 -99 -81 -195 -160
-96 -79 -186 -153 -200 -165 -14 -11 -41 -34 -60 -49 -67 -54 -109 -89 -128
-105 -11 -10 -37 -30 -58 -47 -21 -16 -46 -39 -56 -49 -10 -11 -18 -17 -18
-13 0 3 -10 -4 -23 -16 -29 -28 -66 -59 -145 -122 -34 -27 -62 -53 -62 -57 0
-5 -6 -8 -12 -8 -7 0 -31 -17 -54 -38 -22 -20 -60 -53 -84 -72 -151 -122 -235
-193 -238 -201 -2 -5 -8 -9 -14 -9 -5 0 -15 -6 -22 -12 -7 -7 -34 -31 -61 -53
-26 -22 -53 -46 -61 -52 -7 -7 -15 -13 -18 -13 -3 0 -14 -8 -24 -17 -10 -10
-30 -27 -43 -38 -109 -90 -135 -111 -144 -118 -5 -4 -23 -19 -40 -33 -16 -14
-61 -51 -100 -82 -38 -31 -72 -59 -75 -62 -3 -3 -30 -25 -60 -50 -30 -25 -57
-47 -60 -50 -3 -3 -48 -40 -100 -82 -52 -42 -106 -86 -118 -98 -13 -12 -27
-18 -32 -14 -4 5 -22 45 -40 89 -18 44 -38 94 -45 110 -7 17 -56 140 -110 275
-53 135 -103 259 -110 275 -22 50 -66 159 -69 170 -2 6 -8 21 -13 35 -40 95
-165 407 -166 415 -2 6 -5 15 -9 20 -3 6 -23 53 -43 105 -20 52 -42 106 -48
120 -5 14 -11 27 -12 30 -1 3 -7 18 -13 33 -7 16 -12 30 -12 31 0 2 -8 21 -17
42 -9 22 -17 41 -18 44 -1 3 -5 14 -10 25 -4 11 -19 47 -32 80 -13 33 -30 74
-38 90 -7 17 -16 41 -20 55 -4 14 -18 48 -30 75 -13 28 -33 78 -45 113 -12 34
-26 62 -30 62 -6 0 -28 -45 -34 -70 -5 -19 -51 -136 -55 -140 -3 -3 -7 -13 -9
-22 -2 -10 -30 -89 -63 -175 -114 -299 -130 -338 -167 -433 -20 -52 -37 -98
-38 -102 -1 -5 -3 -10 -4 -13 -1 -3 -3 -8 -5 -12 -1 -5 -5 -15 -8 -23 -24 -56
-129 -337 -130 -347 0 -7 -5 -13 -10 -13 -6 0 -7 -3 -4 -7 4 -3 3 -11 -2 -17
-7 -9 -29 -68 -36 -96 -1 -3 -5 -14 -10 -25 -5 -11 -28 -72 -52 -135 -24 -63
-47 -124 -52 -135 -20 -45 -45 -120 -43 -127 1 -5 -3 -8 -8 -8 -6 0 -10 -6
-10 -14 0 -7 -29 -90 -65 -182 -36 -93 -65 -174 -65 -181 0 -18 -18 -25 -32
-13 -30 24 -65 53 -97 78 -19 15 -39 32 -45 38 -6 5 -72 59 -146 119 -147 120
-161 131 -193 158 -12 10 -37 31 -56 45 -19 15 -39 32 -45 37 -6 6 -36 30 -66
55 -30 25 -57 48 -58 53 -2 4 -8 7 -13 7 -5 0 -17 8 -27 18 -17 17 -34 31
-167 137 -38 31 -81 66 -95 79 -14 12 -45 37 -70 56 -25 19 -47 38 -50 42 -4
4 -33 29 -67 55 -88 70 -265 214 -285 232 -9 9 -23 21 -30 26 -73 58 -397 322
-410 334 -9 9 -23 21 -30 26 -7 6 -38 30 -68 55 -30 25 -59 48 -65 52 -5 4
-30 26 -55 48 -25 22 -48 40 -51 40 -3 0 -17 10 -31 23 -31 28 -87 75 -129
107 -18 14 -43 35 -56 48 -13 12 -28 22 -33 22 -4 0 -10 3 -12 8 -2 6 -151
130 -242 202 -10 8 -26 22 -35 30 -9 8 -42 35 -74 59 -31 24 -57 47 -57 52 0
5 -5 9 -11 9 -6 0 -16 6 -23 13 -7 6 -31 26 -52 44 -22 17 -82 67 -135 110
-52 43 -114 94 -138 113 -24 19 -51 42 -61 50 -9 8 -32 26 -50 40 -17 13 -42
33 -54 45 -13 11 -40 34 -62 50 -36 28 -103 84 -114 95 -3 3 -39 32 -80 65
-41 32 -77 61 -80 65 -3 3 -52 43 -110 90 -58 46 -113 93 -122 104 -10 10 -18
15 -18 10 0 -5 -4 -4 -8 2 -4 5 -45 41 -92 80 -47 38 -94 77 -104 86 -32 29
-34 21 -14 -49 33 -116 58 -207 62 -224 8 -30 28 -104 34 -119 3 -8 6 -19 7
-25 3 -12 29 -105 51 -185 9 -30 17 -59 18 -65 4 -17 36 -127 57 -199 12 -37
22 -73 23 -80 6 -28 18 -72 23 -86 7 -17 9 -25 16 -60 7 -31 72 -263 98 -347
10 -34 21 -70 22 -80 2 -10 6 -25 9 -33 9 -22 59 -200 68 -240 5 -19 25 -91
45 -160 20 -69 38 -138 41 -153 2 -16 7 -34 11 -40 4 -7 8 -17 9 -23 1 -6 10
-38 19 -70 9 -33 19 -66 20 -74 2 -8 18 -64 35 -125 18 -60 33 -117 35 -125 2
-8 4 -15 5 -15 1 0 3 -6 14 -50 6 -25 82 -294 101 -360 9 -28 18 -64 21 -80 3
-16 7 -32 10 -37 3 -4 7 -16 9 -25 2 -10 18 -67 35 -128 18 -60 33 -117 35
-125 3 -13 35 -127 100 -355 8 -27 19 -65 24 -83 5 -18 10 -35 10 -37 1 -11
24 -93 37 -127 8 -21 12 -38 10 -38 -2 0 3 -21 11 -47 12 -40 37 -127 47 -168
2 -5 5 -17 8 -25 6 -16 37 -124 42 -150 2 -8 10 -35 17 -60 7 -25 14 -49 15
-55 2 -5 17 -59 34 -120 27 -96 40 -143 55 -205 8 -31 53 -186 59 -200 3 -8 8
-26 10 -40 6 -28 64 -237 73 -260 3 -8 7 -19 8 -25 0 -5 4 -17 7 -25 4 -8 13
-42 22 -75 8 -33 24 -94 36 -135 11 -41 23 -86 26 -99 3 -13 9 -32 14 -41 5
-10 11 -32 12 -49 1 -17 6 -31 10 -31 4 0 8 -8 8 -17 0 -10 14 -65 31 -123 17
-58 32 -112 34 -120 1 -8 5 -22 8 -30 6 -16 67 -235 72 -260 2 -8 22 -80 45
-160 23 -80 43 -152 45 -160 1 -8 11 -42 21 -75 10 -33 19 -64 20 -70 1 -5 10
-37 19 -70 9 -33 22 -79 28 -102 8 -33 15 -42 36 -45 22 -2 6243 -2 6263 1 6
1 14 21 23 58 6 26 19 74 55 198 17 61 33 118 35 128 7 32 66 242 72 257 3 8
5 19 4 24 -1 4 4 14 10 22 6 8 9 14 6 14 -3 0 4 33 15 72 11 40 21 77 23 83 1
5 5 17 8 25 7 17 35 121 43 159 3 13 9 32 15 43 5 10 8 18 5 18 -3 0 0 15 5
33 6 17 12 39 14 47 2 8 4 15 5 15 1 0 3 7 5 15 1 8 13 51 25 95 13 44 23 86
23 93 0 6 5 12 10 12 6 0 8 3 5 6 -4 3 -2 20 3 37 6 18 12 40 14 50 2 10 7 27
10 37 3 10 8 27 10 37 2 10 20 74 39 143 20 69 39 138 41 154 3 16 9 34 13 40
3 6 7 16 8 21 1 6 9 37 18 70 9 33 19 70 22 82 2 12 9 34 14 48 5 14 7 25 4
25 -4 0 -1 6 5 14 6 8 11 18 10 22 -1 5 1 16 4 24 3 8 15 49 26 90 11 41 24
90 30 108 5 18 10 36 10 40 1 4 8 32 17 62 9 30 18 64 21 75 8 35 11 50 14 55
1 3 3 10 4 15 1 6 5 17 8 25 4 8 11 33 16 55 5 22 17 65 26 95 9 30 17 62 19
70 2 8 11 42 21 75 14 51 22 83 39 150 2 6 6 17 9 25 18 46 66 234 61 241 -3
5 0 9 7 9 7 0 10 3 6 6 -3 3 -1 18 5 33 6 14 17 51 24 81 8 30 16 62 19 70 2
8 9 35 16 60 6 25 13 52 16 60 3 8 8 24 10 35 2 11 9 36 15 55 7 19 13 37 13
40 12 49 131 482 147 535 6 22 13 47 15 55 8 33 12 45 13 45 1 0 3 7 5 16 1 9
11 43 20 75 9 33 19 70 22 83 2 14 6 28 9 33 3 4 7 17 9 28 6 30 95 351 105
380 5 14 12 37 14 52 3 15 7 31 10 36 3 5 7 19 10 33 3 13 22 83 41 154 20 72
38 137 40 145 13 52 67 248 72 260 3 8 7 20 8 25 4 16 45 166 61 220 38 134
96 343 100 365 3 14 9 39 15 55 17 56 60 210 65 235 3 14 12 43 20 65 9 22 15
40 13 40 -4 0 23 109 32 126 4 9 11 29 14 45 3 16 11 53 19 82 8 28 13 52 13
52 -1 0 -18 -14 -37 -31z"/>
<path d="M2087 1381 c-2 -3 -2 -170 -2 -371 l1 -365 3129 0 3130 0 0 370 -1
370 -3127 1 c-1721 0 -3129 -2 -3130 -5z"/>
</g>
</svg>
