<?xml version="1.0" encoding="utf-8"?>
<svg width="55" height="23" viewBox="0 0 58 22" fill="none" xmlns="http://www.w3.org/2000/svg">
  <circle cx="11" cy="11" r="10.5" stroke="#AD810F" style=""/>
  <ellipse cx="11" cy="8.136" rx="9.068" ry="6.206" fill="#E1A817" style=""/>
  <path fill-rule="evenodd" clip-rule="evenodd" d="M 13.822 10.665 L 10.935 15.882 C 10.465 16.73 9.323 16.912 8.614 16.251 C 7.904 15.589 8.006 14.437 8.82 13.909 L 13.822 10.665 Z" fill="#FBC843" stroke="#AD810F" style=""/>
  <path d="M31.496 5.488C31.496 4.592 31.7253 3.89867 32.184 3.408C32.6427 2.91733 33.304 2.672 34.168 2.672C35.032 2.672 35.6933 2.91733 36.152 3.408C36.6107 3.89867 36.84 4.592 36.84 5.488V11.312C36.84 12.208 36.6107 12.9013 36.152 13.392C35.6933 13.8827 35.032 14.128 34.168 14.128C33.304 14.128 32.6427 13.8827 32.184 13.392C31.7253 12.9013 31.496 12.208 31.496 11.312V5.488ZM33.256 11.424C33.256 12.16 33.56 12.528 34.168 12.528C34.776 12.528 35.08 12.16 35.08 11.424V5.376C35.08 4.64 34.776 4.272 34.168 4.272C33.56 4.272 33.256 4.64 33.256 5.376V11.424ZM41.1038 7.6V9.2H37.9038V7.6H41.1038ZM42.1842 5.584C42.1842 3.64267 43.0803 2.672 44.8723 2.672C45.7256 2.672 46.3763 2.91733 46.8243 3.408C47.2723 3.888 47.4963 4.58133 47.4963 5.488V5.776H45.8323V5.376C45.8323 4.64 45.5283 4.272 44.9203 4.272C44.5896 4.272 44.3443 4.37333 44.1843 4.576C44.0243 4.77867 43.9443 5.136 43.9443 5.648V7.696C44.2536 7.03467 44.7976 6.704 45.5763 6.704C46.2163 6.704 46.7016 6.92267 47.0323 7.36C47.3629 7.79733 47.5283 8.432 47.5283 9.264V11.312C47.5283 12.208 47.2989 12.9013 46.8403 13.392C46.3816 13.8827 45.7203 14.128 44.8563 14.128C43.9923 14.128 43.3309 13.8827 42.8723 13.392C42.4136 12.9013 42.1842 12.208 42.1842 11.312V5.584ZM44.8563 8.304C44.2483 8.304 43.9443 8.672 43.9443 9.408V11.424C43.9443 12.1493 44.2483 12.512 44.8563 12.512C45.4643 12.512 45.7682 12.1493 45.7682 11.424V9.408C45.7682 8.672 45.4643 8.304 44.8563 8.304ZM48.496 5.488C48.496 4.592 48.7253 3.89867 49.184 3.408C49.6427 2.91733 50.304 2.672 51.168 2.672C52.032 2.672 52.6933 2.91733 53.152 3.408C53.6107 3.89867 53.84 4.592 53.84 5.488V11.312C53.84 12.208 53.6107 12.9013 53.152 13.392C52.6933 13.8827 52.032 14.128 51.168 14.128C50.304 14.128 49.6427 13.8827 49.184 13.392C48.7253 12.9013 48.496 12.208 48.496 11.312V5.488ZM50.256 11.424C50.256 12.16 50.56 12.528 51.168 12.528C51.776 12.528 52.08 12.16 52.08 11.424V5.376C52.08 4.64 51.776 4.272 51.168 4.272C50.56 4.272 50.256 4.64 50.256 5.376V11.424Z" fill="#1B1E28"/>
  <rect x="10.523" y="2.886" width="0.955" height="2.865" rx="0.5" fill="#AD810F" style=""/>
  <rect x="14.622" y="3.711" width="0.955" height="2.865" rx="0.5" transform="matrix(0.866025, 0.5, -0.5, 0.866025, 3.83769, -6.790643)" fill="#AD810F" style=""/>
  <rect x="6.508" y="4.189" width="0.955" height="2.865" rx="0.5" transform="matrix(0.866025, -0.5, 0.5, 0.866025, -1.200199, 3.837703)" fill="#AD810F" style=""/>
  <rect x="3.711" y="7.335" width="0.955" height="2.865" rx="0.5" transform="matrix(0.5, -0.866025, 0.866025, 0.5, -4.472682, 6.904577)" fill="#AD810F" style=""/>
  <rect x="17.766" y="6.508" width="0.955" height="2.865" rx="0.5" transform="matrix(0.5, 0.866025, -0.866025, 0.5, 14.541286, -12.109361)" fill="#AD810F" style=""/>
  <rect x="19.092" y="10.5" width="0.955" height="2.865" rx="0.5" transform="matrix(0, 1, -1, 0, 29.614836, -8.568556)" fill="#AD810F" style=""/>
  <rect x="5.727" y="10.5" width="0.955" height="2.865" rx="0.5" transform="matrix(0, 1, -1, 0, 16.25065, 4.795631)" fill="#AD810F" style=""/>
</svg>